<svg width="103" height="48" viewBox="0 0 103 48" fill="none" xmlns="http://www.w3.org/2000/svg">
<path d="M102.824 5.47622C103.443 6.81262 103.485 12.1842 77.4274 24.4146L51.8798 36.4058C42.9878 40.5814 30.0866 46.0726 24.3978 47.591C20.4146 48.6518 16.6134 45.9478 16.6134 45.9478C16.6134 45.9478 5.14221 35.6778 2.09501 33.369C-0.952193 31.0602 -0.686993 29.885 3.21301 28.637C5.64141 27.8622 19.489 31.2006 25.391 32.693C30.7736 29.4697 36.219 26.3526 41.7242 23.3434C34.465 17.9718 20.8826 7.94102 16.551 4.88342C12.3962 1.94542 16.603 0.889822 16.603 0.889822C18.5166 0.375022 22.6454 -0.295779 24.7254 0.141021C38.8746 3.09982 62.493 10.9102 64.3026 11.5082C69.3214 8.87812 74.387 6.33838 79.497 3.89022C90.287 -1.17458 101.997 3.69782 102.824 5.47622Z" fill="#1C2B59"/>
</svg>
