<svg width="101" height="83" viewBox="0 0 101 83" fill="none" xmlns="http://www.w3.org/2000/svg">
<path d="M63.4792 79.8887C61.4304 74.1895 54.0932 55.0587 51.0512 47.1443C45.3156 50.9767 38.9144 54.6063 32.7888 57.1699C30.8856 63.8259 27.1 76.4567 25.2696 78.1415C22.1288 81.0379 20.9432 80.6635 20.4596 76.6907C19.976 72.7179 17.9376 59.8635 17.9376 59.8635C17.9376 59.8635 6.69518 53.5247 3.16958 51.7099C-0.356017 49.8951 -0.298816 48.6367 3.46598 46.6451C5.66038 45.4855 18.6864 46.2031 25.5244 46.6711C30.0016 41.7259 35.5656 36.8847 41.088 32.7403C34.77 27.1451 19.508 13.6303 14.9112 9.73555C10.876 6.31395 15.322 5.59115 15.322 5.59115C17.35 5.22715 21.6764 4.90475 23.7876 5.54435C36.9124 9.51195 57.286 16.2979 62.0752 17.8995L68.1176 13.6303C92.568 -3.68565 98.73 0.146747 99.8948 1.82635C101.06 3.50595 102.51 10.6715 78.06 27.9927L72.028 32.2723C71.8772 37.3683 71.2116 59.0575 70.4108 72.8895C70.2808 75.1152 68.5024 79.1191 67.4728 80.9183C67.4676 80.9183 65.2732 84.8963 63.4792 79.8887Z" fill="#1C2B59"/>
</svg>
