<svg width="25" height="25" viewBox="0 0 25 25" fill="none" xmlns="http://www.w3.org/2000/svg">
<g clip-path="url(#clip0_7350_9834)">
<path d="M12.98 2.18595C16.184 2.18595 16.564 2.19795 17.83 2.25595C21.082 2.40395 22.601 3.94695 22.749 7.17495C22.807 8.43995 22.818 8.81995 22.818 12.0239C22.818 15.2289 22.806 15.6079 22.749 16.8729C22.6 20.0979 21.085 21.6439 17.83 21.7919C16.564 21.8499 16.186 21.8619 12.98 21.8619C9.77598 21.8619 9.39598 21.8499 8.13098 21.7919C4.87098 21.6429 3.35998 20.093 3.21198 16.872C3.15398 15.6069 3.14198 15.2279 3.14198 12.0229C3.14198 8.81895 3.15498 8.43995 3.21198 7.17395C3.36098 3.94695 4.87598 2.40295 8.13098 2.25495C9.39698 2.19795 9.77598 2.18595 12.98 2.18595ZM12.98 0.0229492C9.72098 0.0229492 9.31298 0.0369492 8.03298 0.0949492C3.67498 0.294949 1.25298 2.71295 1.05298 7.07495C0.99398 8.35595 0.97998 8.76395 0.97998 12.0229C0.97998 15.2819 0.99398 15.6909 1.05198 16.9709C1.25198 21.3289 3.66998 23.7509 8.03198 23.9509C9.31298 24.0089 9.72098 24.0229 12.98 24.0229C16.239 24.0229 16.648 24.0089 17.928 23.9509C22.282 23.7509 24.71 21.3329 24.907 16.9709C24.966 15.6909 24.98 15.2819 24.98 12.0229C24.98 8.76395 24.966 8.35595 24.908 7.07595C24.712 2.72195 22.291 0.295949 17.929 0.0959492C16.648 0.0369492 16.239 0.0229492 12.98 0.0229492ZM12.98 5.86095C9.57698 5.86095 6.81798 8.61995 6.81798 12.0229C6.81798 15.4259 9.57698 18.1859 12.98 18.1859C16.383 18.1859 19.142 15.4269 19.142 12.0229C19.142 8.61995 16.383 5.86095 12.98 5.86095ZM12.98 16.0229C10.771 16.0229 8.97998 14.2329 8.97998 12.0229C8.97998 9.81395 10.771 8.02295 12.98 8.02295C15.189 8.02295 16.98 9.81395 16.98 12.0229C16.98 14.2329 15.189 16.0229 12.98 16.0229ZM19.386 4.17795C18.59 4.17795 17.945 4.82295 17.945 5.61795C17.945 6.41295 18.59 7.05795 19.386 7.05795C20.181 7.05795 20.825 6.41295 20.825 5.61795C20.825 4.82295 20.181 4.17795 19.386 4.17795Z" fill="#1E1E1E"/>
</g>
<defs>
<clipPath id="clip0_7350_9834">
<rect width="24" height="24" fill="white" transform="translate(0.97998 0.0229492)"/>
</clipPath>
</defs>
</svg>
