<svg width="25" height="25" viewBox="0 0 25 25" fill="none" xmlns="http://www.w3.org/2000/svg">
<g clip-path="url(#clip0_7350_9838)">
<path d="M19.98 0.0229492H5.97998C3.21898 0.0229492 0.97998 2.26195 0.97998 5.02295V19.0229C0.97998 21.7839 3.21898 24.0229 5.97998 24.0229H19.98C22.742 24.0229 24.98 21.7839 24.98 19.0229V5.02295C24.98 2.26195 22.742 0.0229492 19.98 0.0229492ZM8.97998 19.0229H5.97998V8.02295H8.97998V19.0229ZM7.47998 6.75495C6.51398 6.75495 5.72998 5.96495 5.72998 4.99095C5.72998 4.01695 6.51398 3.22695 7.47998 3.22695C8.44598 3.22695 9.22998 4.01695 9.22998 4.99095C9.22998 5.96495 8.44698 6.75495 7.47998 6.75495ZM20.98 19.0229H17.98V13.4189C17.98 10.0509 13.98 10.3059 13.98 13.4189V19.0229H10.98V8.02295H13.98V9.78795C15.376 7.20195 20.98 7.01095 20.98 12.2639V19.0229Z" fill="#1E1E1E"/>
</g>
<defs>
<clipPath id="clip0_7350_9838">
<rect width="24" height="24" fill="white" transform="translate(0.97998 0.0229492)"/>
</clipPath>
</defs>
</svg>
