<svg width="35" height="28" viewBox="0 0 35 28" fill="none" xmlns="http://www.w3.org/2000/svg">
<path d="M34.4804 26.9223C34.2576 27.4431 32.733 28.8374 22.5312 24.5372L12.5289 20.3211C9.04703 18.8541 4.15728 16.5799 2.25923 15.3446C0.930916 14.4791 0.725518 12.6968 0.725518 12.6968C0.725518 12.6968 0.708735 6.77495 0.584427 5.30979C0.460119 3.84464 0.864273 3.61799 2.22468 4.41153C3.0711 4.90622 5.6807 9.72338 6.77306 11.7944C9.07961 12.5033 11.372 13.2575 13.6489 14.0566C13.316 10.5994 12.6875 4.13566 12.4467 2.11068C12.2172 0.167017 13.6015 1.09776 13.6015 1.09776C14.2412 1.51223 15.4955 2.5197 15.9059 3.22663C18.7016 8.0323 22.5476 16.7931 22.8424 17.4642C24.8858 18.2218 26.9154 19.0161 28.9302 19.8466C33.1548 21.6272 34.7759 26.2283 34.4804 26.9223Z" fill="#1C2B59"/>
</svg>
