<svg width="40" height="16" viewBox="0 0 40 16" fill="none" xmlns="http://www.w3.org/2000/svg">
<path d="M39.7401 2.3001C39.9781 2.7113 39.9941 4.3641 29.9721 8.12731L20.1461 11.8169C16.7261 13.1017 11.7641 14.7913 9.57612 15.2585C8.04412 15.5849 6.58212 14.7529 6.58212 14.7529C6.58212 14.7529 2.17012 11.5929 0.998118 10.8825C-0.173883 10.1721 -0.0718827 9.8105 1.42812 9.42651C2.36212 9.1881 7.68812 10.2153 9.95812 10.6745C12.0283 9.68271 14.1227 8.72359 16.2401 7.79771C13.4481 6.14491 8.22412 3.0585 6.55812 2.1177C4.96012 1.2137 6.57812 0.888904 6.57812 0.888904C7.31412 0.730504 8.90212 0.524103 9.70212 0.658504C15.1441 1.5689 24.2281 3.9721 24.9241 4.1561C26.8544 3.34684 28.8027 2.56538 30.7681 1.8121C34.9181 0.253703 39.4221 1.7529 39.7401 2.3001Z" fill="#1C2B59"/>
</svg>
