<svg width="32" height="31" viewBox="0 0 32 31" fill="none" xmlns="http://www.w3.org/2000/svg">
<path d="M16.0297 15.5114C14.6214 15.5114 13.4158 15.01 12.4129 14.0071C11.4101 13.0042 10.9086 11.7986 10.9086 10.3904C10.9086 8.98207 11.4101 7.77649 12.4129 6.77362C13.4158 5.77075 14.6214 5.26932 16.0297 5.26932C17.438 5.26932 18.6435 5.77075 19.6464 6.77362C20.6493 7.77649 21.1507 8.98207 21.1507 10.3904C21.1507 11.7986 20.6493 13.0042 19.6464 14.0071C18.6435 15.01 17.438 15.5114 16.0297 15.5114ZM5.7876 25.7535V22.1688C5.7876 21.4433 5.9743 20.7765 6.34771 20.1684C6.72112 19.5602 7.21722 19.0961 7.83601 18.7761C9.15895 18.1146 10.5032 17.6185 11.8688 17.2878C13.2344 16.957 14.6214 16.7917 16.0297 16.7917C17.438 16.7917 18.8249 16.957 20.1905 17.2878C21.5561 17.6185 22.9004 18.1146 24.2234 18.7761C24.8421 19.0961 25.3382 19.5602 25.7117 20.1684C26.0851 20.7765 26.2718 21.4433 26.2718 22.1688V25.7535H5.7876ZM8.34812 23.193H23.7112V22.1688C23.7112 21.934 23.6526 21.7207 23.5352 21.5286C23.4179 21.3366 23.2632 21.1872 23.0711 21.0805C21.9189 20.5044 20.756 20.0723 19.5824 19.7843C18.4088 19.4962 17.2246 19.3522 16.0297 19.3522C14.8348 19.3522 13.6505 19.4962 12.477 19.7843C11.3034 20.0723 10.1405 20.5044 8.98825 21.0805C8.79621 21.1872 8.64151 21.3366 8.52415 21.5286C8.4068 21.7207 8.34812 21.934 8.34812 22.1688V23.193ZM16.0297 12.9509C16.7338 12.9509 17.3366 12.7002 17.8381 12.1987C18.3395 11.6973 18.5902 11.0945 18.5902 10.3904C18.5902 9.68622 18.3395 9.08343 17.8381 8.58199C17.3366 8.08056 16.7338 7.82984 16.0297 7.82984C15.3255 7.82984 14.7228 8.08056 14.2213 8.58199C13.7199 9.08343 13.4692 9.68622 13.4692 10.3904C13.4692 11.0945 13.7199 11.6973 14.2213 12.1987C14.7228 12.7002 15.3255 12.9509 16.0297 12.9509Z" fill="#7C7C7D"/>
</svg>
