<svg width="32" height="31" viewBox="0 0 32 31" fill="none" xmlns="http://www.w3.org/2000/svg">
<path d="M15.8473 22.0065C17.6183 22.0065 19.128 21.3824 20.3762 20.1341C21.6245 18.8859 22.2486 17.3762 22.2486 15.6052C22.2486 13.8342 21.6245 12.3246 20.3762 11.0763C19.128 9.82804 17.6183 9.20392 15.8473 9.20392C14.0763 9.20392 12.5666 9.82804 11.3184 11.0763C10.0701 12.3246 9.44598 13.8342 9.44598 15.6052C9.44598 17.3762 10.0701 18.8859 11.3184 20.1341C12.5666 21.3824 14.0763 22.0065 15.8473 22.0065ZM15.8473 28.4078C14.0763 28.4078 12.4119 28.0718 10.8543 27.3996C9.29662 26.7275 7.94167 25.8153 6.78944 24.6631C5.63721 23.5108 4.72502 22.1559 4.05288 20.5982C3.38075 19.0406 3.04468 17.3762 3.04468 15.6052C3.04468 13.8342 3.38075 12.1699 4.05288 10.6122C4.72502 9.05455 5.63721 7.69961 6.78944 6.54737C7.94167 5.39514 9.29662 4.48295 10.8543 3.81082C12.4119 3.13868 14.0763 2.80261 15.8473 2.80261C17.6183 2.80261 19.2827 3.13868 20.8403 3.81082C22.398 4.48295 23.7529 5.39514 24.9051 6.54737C26.0574 7.69961 26.9695 9.05455 27.6417 10.6122C28.3138 12.1699 28.6499 13.8342 28.6499 15.6052C28.6499 17.3762 28.3138 19.0406 27.6417 20.5982C26.9695 22.1559 26.0574 23.5108 24.9051 24.6631C23.7529 25.8153 22.398 26.7275 20.8403 27.3996C19.2827 28.0718 17.6183 28.4078 15.8473 28.4078ZM15.8473 25.8473C18.7065 25.8473 21.1284 24.8551 23.1128 22.8707C25.0972 20.8863 26.0894 18.4645 26.0894 15.6052C26.0894 12.746 25.0972 10.3241 23.1128 8.33974C21.1284 6.35534 18.7065 5.36313 15.8473 5.36313C12.988 5.36313 10.5662 6.35534 8.58181 8.33974C6.5974 10.3241 5.6052 12.746 5.6052 15.6052C5.6052 18.4645 6.5974 20.8863 8.58181 22.8707C10.5662 24.8551 12.988 25.8473 15.8473 25.8473Z" fill="white"/>
</svg>
