<svg width="32" height="31" viewBox="0 0 32 31" fill="none" xmlns="http://www.w3.org/2000/svg">
<path d="M16.2682 28.4078C14.4972 28.4078 12.8328 28.0718 11.2752 27.3996C9.71752 26.7275 8.36257 25.8153 7.21034 24.6631C6.0581 23.5108 5.14592 22.1559 4.47378 20.5982C3.80164 19.0406 3.46558 17.3762 3.46558 15.6052C3.46558 13.8342 3.80164 12.1699 4.47378 10.6122C5.14592 9.05455 6.0581 7.69961 7.21034 6.54737C8.36257 5.39514 9.71752 4.48295 11.2752 3.81082C12.8328 3.13868 14.4972 2.80261 16.2682 2.80261C18.0392 2.80261 19.7036 3.13868 21.2612 3.81082C22.8189 4.48295 24.1738 5.39514 25.326 6.54737C26.4783 7.69961 27.3904 9.05455 28.0626 10.6122C28.7347 12.1699 29.0708 13.8342 29.0708 15.6052C29.0708 17.3762 28.7347 19.0406 28.0626 20.5982C27.3904 22.1559 26.4783 23.5108 25.326 24.6631C24.1738 25.8153 22.8189 26.7275 21.2612 27.3996C19.7036 28.0718 18.0392 28.4078 16.2682 28.4078ZM16.2682 25.8473C19.1274 25.8473 21.5493 24.8551 23.5337 22.8707C25.5181 20.8863 26.5103 18.4645 26.5103 15.6052C26.5103 12.746 25.5181 10.3241 23.5337 8.33974C21.5493 6.35534 19.1274 5.36313 16.2682 5.36313C13.4089 5.36313 10.9871 6.35534 9.0027 8.33974C7.0183 10.3241 6.0261 12.746 6.0261 15.6052C6.0261 18.4645 7.0183 20.8863 9.0027 22.8707C10.9871 24.8551 13.4089 25.8473 16.2682 25.8473Z" fill="#253A7B"/>
</svg>
