<svg width="31" height="31" viewBox="0 0 31 31" fill="none" xmlns="http://www.w3.org/2000/svg">
<path d="M6.61598 15.6053V9.83314C6.63312 8.69853 6.87398 7.57845 7.32474 6.53709C7.77551 5.49573 8.42733 4.55354 9.24285 3.76453C10.0584 2.97551 11.0216 2.35516 12.0773 1.93904C13.1329 1.52291 14.2604 1.31918 15.3949 1.33952C16.5295 1.31918 17.6569 1.52291 18.7126 1.93904C19.7682 2.35516 20.7314 2.97551 21.547 3.76453C22.3625 4.55354 23.0143 5.49573 23.4651 6.53709C23.9158 7.57845 24.1567 8.69853 24.1738 9.83314V15.6053M19.7844 27.1276C20.9485 27.1276 22.065 26.6652 22.8882 25.842C23.7114 25.0188 24.1738 23.9023 24.1738 22.7382V17.8M19.7844 27.1276C19.7844 27.8552 19.4953 28.553 18.9808 29.0675C18.4664 29.582 17.7686 29.871 17.041 29.871H13.7489C13.0213 29.871 12.3235 29.582 11.809 29.0675C11.2945 28.553 11.0054 27.8552 11.0054 27.1276C11.0054 26.4 11.2945 25.7022 11.809 25.1877C12.3235 24.6733 13.0213 24.3842 13.7489 24.3842H17.041C17.7686 24.3842 18.4664 24.6733 18.9808 25.1877C19.4953 25.7022 19.7844 26.4 19.7844 27.1276ZM3.32388 12.3132H5.51862C5.80965 12.3132 6.08877 12.4288 6.29457 12.6346C6.50037 12.8404 6.61598 13.1195 6.61598 13.4106V19.9947C6.61598 20.2858 6.50037 20.5649 6.29457 20.7707C6.08877 20.9765 5.80965 21.0921 5.51862 21.0921H3.32388C2.7418 21.0921 2.18356 20.8609 1.77197 20.4493C1.36038 20.0377 1.12915 19.4795 1.12915 18.8974V14.5079C1.12915 13.9258 1.36038 13.3676 1.77197 12.956C2.18356 12.5444 2.7418 12.3132 3.32388 12.3132ZM27.4659 21.0921H25.2712C24.9802 21.0921 24.701 20.9765 24.4953 20.7707C24.2895 20.5649 24.1738 20.2858 24.1738 19.9947V13.4106C24.1738 13.1195 24.2895 12.8404 24.4953 12.6346C24.701 12.4288 24.9802 12.3132 25.2712 12.3132H27.4659C28.048 12.3132 28.6063 12.5444 29.0178 12.956C29.4294 13.3676 29.6607 13.9258 29.6607 14.5079V18.8974C29.6607 19.4795 29.4294 20.0377 29.0178 20.4493C28.6063 20.8609 28.048 21.0921 27.4659 21.0921Z" stroke="#253A7B" stroke-width="1.28026" stroke-linecap="round" stroke-linejoin="round"/>
</svg>
