<svg width="48" height="48" viewBox="0 0 48 48" fill="none" xmlns="http://www.w3.org/2000/svg">
<circle cx="23.6848" cy="23.6843" r="23.6848" fill="#253A7B"/>
<rect width="15.3631" height="8.96183" transform="translate(16 18.9995)" fill="#253A7B"/>
<path d="M15.5473 18.5468C15.2973 18.7968 15.2973 19.2021 15.5473 19.4521L19.621 23.5259C19.871 23.7758 20.2763 23.7758 20.5263 23.5259C20.7763 23.2759 20.7763 22.8706 20.5263 22.6206L16.9052 18.9995L20.5263 15.3783C20.7763 15.1283 20.7763 14.723 20.5263 14.473C20.2763 14.2231 19.871 14.2231 19.621 14.473L15.5473 18.5468ZM31.363 18.3593L15.9999 18.3593V19.6396L31.363 19.6396V18.3593Z" fill="white"/>
<path d="M31.8158 27.5086C32.0658 27.7586 32.0658 28.1639 31.8158 28.4139L27.742 32.4877C27.492 32.7377 27.0867 32.7377 26.8367 32.4877C26.5867 32.2377 26.5867 31.8324 26.8367 31.5824L30.4578 27.9613L26.8367 24.3401C26.5867 24.0902 26.5867 23.6849 26.8367 23.4349C27.0867 23.1849 27.492 23.1849 27.742 23.4349L31.8158 27.5086ZM16 27.3211L31.3631 27.3211V28.6014L16 28.6014V27.3211Z" fill="white"/>
</svg>
