<svg width="104" height="56" viewBox="0 0 104 56" fill="none" xmlns="http://www.w3.org/2000/svg">
<path d="M53.6758 16.7261C56.3503 16.7261 58.8555 17.2339 61.1914 18.2495C63.5273 19.2651 65.5924 20.6532 67.3867 22.4136C69.181 24.174 70.569 26.2222 71.5508 28.5581C72.5326 30.894 73.0404 33.4162 73.0742 36.1245C73.0742 38.799 72.5664 41.3042 71.5508 43.6401C70.5352 45.9761 69.1471 48.0412 67.3867 49.8354C65.6263 51.6297 63.5781 53.0177 61.2422 53.9995C58.9062 54.9813 56.3841 55.4891 53.6758 55.5229C51.8815 55.5229 50.138 55.286 48.4453 54.812C46.7526 54.3381 45.1784 53.661 43.7227 52.7808C42.2669 51.9006 40.9128 50.8172 39.6602 49.5308C38.4076 48.2443 37.375 46.8055 36.5625 45.2144C35.7161 46.8055 34.6836 48.2274 33.4648 49.48C32.2461 50.7326 30.8919 51.8159 29.4023 52.73C27.9128 53.644 26.3216 54.3381 24.6289 54.812C22.9362 55.286 21.1927 55.5229 19.3984 55.5229C16.7917 55.5229 14.3203 55.0321 11.9844 54.0503C9.64844 53.0685 7.58333 51.6974 5.78906 49.937C3.99479 48.1766 2.58984 46.1623 1.57422 43.894C0.558594 41.6258 0.0338542 39.1375 0 36.4292V4.23389C0 3.18441 0.389323 2.28727 1.16797 1.54248C1.94661 0.797689 2.84375 0.425293 3.85938 0.425293C4.875 0.425293 5.77214 0.797689 6.55078 1.54248C7.32943 2.28727 7.73568 3.18441 7.76953 4.23389V20.5854C9.46224 19.3328 11.2904 18.3849 13.2539 17.7417C15.2174 17.0985 17.2656 16.7599 19.3984 16.7261C21.1927 16.7261 22.9362 16.9631 24.6289 17.437C26.3216 17.911 27.9128 18.5881 29.4023 19.4683C30.8919 20.3485 32.2461 21.4318 33.4648 22.7183C34.6836 24.0047 35.7161 25.4435 36.5625 27.0347C37.4089 25.4435 38.4414 24.0216 39.6602 22.769C40.8789 21.5164 42.2161 20.4331 43.6719 19.519C45.1276 18.605 46.7188 17.911 48.4453 17.437C50.1719 16.9631 51.9154 16.7261 53.6758 16.7261ZM19.3984 47.7534C20.9896 47.7534 22.4961 47.4487 23.918 46.8394C25.3398 46.23 26.5755 45.4006 27.625 44.3511C28.6745 43.3016 29.5039 42.0659 30.1133 40.644C30.7227 39.2222 31.0273 37.7157 31.0273 36.1245C31.0273 34.4995 30.7227 32.993 30.1133 31.605C29.5039 30.217 28.6745 28.9813 27.625 27.8979C26.5755 26.8146 25.3568 25.9852 23.9688 25.4097C22.5807 24.8341 21.0573 24.5295 19.3984 24.4956C17.7734 24.4956 16.2669 24.8003 14.8789 25.4097C13.4909 26.019 12.2552 26.8485 11.1719 27.8979C10.0885 28.9474 9.25911 30.1662 8.68359 31.5542C8.10807 32.9422 7.80339 34.4657 7.76953 36.1245C7.76953 37.7157 8.07422 39.2222 8.68359 40.644C9.29297 42.0659 10.1224 43.3016 11.1719 44.3511C12.2214 45.4006 13.457 46.23 14.8789 46.8394C16.3008 47.4487 17.8073 47.7534 19.3984 47.7534ZM53.6758 47.7534C55.2669 47.7534 56.7734 47.4487 58.1953 46.8394C59.6172 46.23 60.8529 45.4006 61.9023 44.3511C62.9518 43.3016 63.7812 42.0659 64.3906 40.644C65 39.2222 65.3047 37.7157 65.3047 36.1245C65.3047 34.4995 65 32.993 64.3906 31.605C63.7812 30.217 62.9518 28.9813 61.9023 27.8979C60.8529 26.8146 59.6341 25.9852 58.2461 25.4097C56.8581 24.8341 55.3346 24.5295 53.6758 24.4956C52.0846 24.4956 50.5781 24.8003 49.1562 25.4097C47.7344 26.019 46.4987 26.8485 45.4492 27.8979C44.3997 28.9474 43.5703 30.1831 42.9609 31.605C42.3516 33.0269 42.0469 34.5334 42.0469 36.1245C42.0469 37.7157 42.3516 39.2222 42.9609 40.644C43.5703 42.0659 44.3997 43.3016 45.4492 44.3511C46.4987 45.4006 47.7344 46.23 49.1562 46.8394C50.5781 47.4487 52.0846 47.7534 53.6758 47.7534ZM103.188 49.0229C103.729 49.6662 104 50.4279 104 51.3081C104 52.4591 103.577 53.3901 102.73 54.1011C101.884 54.812 100.885 55.1675 99.7344 55.1675C99.125 55.1675 98.5326 55.049 97.957 54.812C97.3815 54.575 96.8737 54.2026 96.4336 53.6948L87.3945 42.5737L78.3047 53.6948C77.8984 54.1688 77.4076 54.5243 76.832 54.7612C76.2565 54.9982 75.6471 55.1336 75.0039 55.1675C73.8867 55.1675 72.9049 54.812 72.0586 54.1011C71.2122 53.3901 70.7721 52.4591 70.7383 51.3081C70.7383 50.4956 71.0091 49.7339 71.5508 49.0229L82.0625 36.0737L71.5508 23.1245C71.0091 22.4136 70.7383 21.6519 70.7383 20.8394C70.7383 20.2638 70.8568 19.7391 71.0938 19.2651C71.3307 18.7912 71.6354 18.3849 72.0078 18.0464C72.3802 17.7078 72.8372 17.4539 73.3789 17.2847C73.9206 17.1154 74.4453 17.0138 74.9531 16.98C75.5625 16.98 76.1719 17.0985 76.7812 17.3354C77.3906 17.5724 77.8984 17.9448 78.3047 18.4526L87.3945 29.6245L96.4336 18.4526C96.806 17.9787 97.3138 17.6232 97.957 17.3862C98.6003 17.1493 99.2266 17.0138 99.8359 16.98C100.378 16.98 100.885 17.0646 101.359 17.2339C101.833 17.4032 102.273 17.674 102.68 18.0464C103.086 18.4188 103.408 18.842 103.645 19.3159C103.882 19.7899 104 20.2977 104 20.8394C104 21.6519 103.729 22.4136 103.188 23.1245L92.625 36.0737L103.188 49.0229Z" fill="black"/>
</svg>
